mtllib materials.mtl
v -0.07499997 -0.1099997 0.1299038
v -0.1299038 -0.1099997 0.07499993
v -0.1556119 -0.04999989 0.08984244
v -0.08984245 -0.04999989 0.1556118
v -1.490116E-08 -0.1099997 0.1499999
v 0.07499998 -0.1099997 0.1299037
v 0.0546751 -0.1599998 0.09469981
v 1.434237E-07 -0.1599998 0.10935
v 0.1299038 -0.1099997 0.07499993
v 0.09469993 -0.1599998 0.05467492
v 0.15 -0.1099997 -5.960464E-08
v 0.10935 -0.1599998 -1.192093E-07
v 0.1299038 -0.1099997 -0.07500008
v 0.09469996 -0.1599998 -0.05467504
v 0.07499999 -0.1099997 -0.1299039
v 0.05467506 -0.1599998 -0.09469992
v -2.793968E-08 -0.1099997 -0.1500001
v 1.918525E-07 -0.1599998 -0.10935
v -0.07500004 -0.1099997 -0.1299038
v -0.05467498 -0.1599998 -0.09469992
v -0.1299038 -0.1099997 -0.07500005
v -0.0946998 -0.1599998 -0.05467507
v -0.15 -0.1099997 -5.960464E-08
v -0.1093499 -0.1599998 -2.980232E-08
v -0.09469981 -0.1599998 0.05467489
v -0.05467492 -0.1599998 0.09469979
v 0.0290564 -0.19 0.05032721
v -2.421439E-08 -0.19 0.05811295
v 0.05032735 -0.19 0.02905643
v 0.05811293 -0.19 -1.490116E-07
v 0.05032732 -0.19 -0.02905664
v 0.02905649 -0.19 -0.05032748
v -7.636845E-08 -0.19 -0.05811319
v -0.02905671 -0.19 -0.05032754
v -0.05032745 -0.19 -0.02905667
v -0.05811303 -0.19 -5.960464E-08
v -0.05032742 -0.19 0.0290564
v -0.02905659 -0.19 0.05032727
v -0.179685 -0.04999965 0
v -0.1556118 -0.04999965 -0.0898425
v -0.08984253 -0.04999965 -0.1556117
v -6.705523E-08 -0.04999965 -0.1796851
v 0.08984257 -0.04999965 -0.1556117
v 0.1556118 -0.04999965 -0.08984253
v 0.179685 -0.04999965 0
v 0.1556118 -0.04999989 0.08984253
v 0.08984249 -0.04999989 0.1556118
v 7.264316E-08 -0.04999989 0.1796851
v -0.1540559 0.009999812 0.0889443
v -0.08894426 0.009999812 0.1540559
v -0.1778884 0.01000005 2.086163E-07
v -0.1540558 0.01000005 -0.08894378
v -0.08894425 0.01000005 -0.1540554
v -2.346933E-07 0.01000005 -0.177888
v 0.08894402 0.01000005 -0.1540553
v 0.1540554 0.01000005 -0.0889439
v 0.177888 0.01000005 2.682209E-07
v 0.1540555 0.009999812 0.08894441
v 0.08894386 0.009999812 0.1540559
v -1.136214E-07 0.009999812 0.1778885
v -0.1386505 0.0799998 0.08005023
v -0.08005007 0.0799998 0.1386507
v -0.1600997 0.08000004 5.662441E-07
v -0.1386505 0.08000004 -0.08004907
v -0.08005004 0.08000004 -0.1386495
v -5.047768E-07 0.08000004 -0.1600989
v 0.08004937 0.08000004 -0.1386495
v 0.1386496 0.08000004 -0.08004922
v 0.1600989 0.08000004 5.662441E-07
v 0.1386497 0.0799998 0.08005032
v 0.0800492 0.0799998 0.1386507
v -4.079193E-07 0.0799998 0.1601
v -0.1010767 0.1499999 0.058357
v -0.05835696 0.1499999 0.1010768
v -0.1167132 0.1500002 7.748604E-07
v -0.1010766 0.1500002 -0.05835533
v -0.05835698 0.1500002 -0.1010751
v -8.586794E-07 0.1500002 -0.1167117
v 0.0583555 0.1500002 -0.1010751
v 0.1010751 0.1500002 -0.05835542
v 0.1167116 0.1500002 8.046627E-07
v 0.1010751 0.1499999 0.05835706
v 0.05835539 0.1499999 0.1010767
v -8.270144E-07 0.1499999 0.1167133
v -0.06631696 0.1899998 0.03828853
v -0.03828862 0.1899998 0.06631692
v -0.07657608 0.19 9.834766E-07
v -0.0663169 0.19 -0.03828645
v -0.03828851 0.19 -0.06631488
v -1.072884E-06 0.19 -0.07657403
v 0.03828654 0.19 -0.06631482
v 0.06631479 0.19 -0.03828654
v 0.07657392 0.19 1.013279E-06
v 0.06631483 0.1899998 0.03828853
v 0.03828645 0.1899998 0.06631695
v -1.102686E-06 0.1899998 0.07657605
v -0.053717 0.1899998 0.03101391
v -0.03101401 0.1899998 0.05371696
v -0.06202688 0.19 1.013279E-06
v -0.05371698 0.19 -0.03101185
v -0.0310139 0.19 -0.05371478
v -1.1269E-06 0.19 -0.06202474
v 0.03101182 0.19 -0.05371481
v 0.05371476 0.19 -0.03101185
v 0.06202464 0.19 1.043081E-06
v 0.05371481 0.1899998 0.03101397
v 0.03101175 0.1899998 0.0537169
v -1.1269E-06 0.1899998 0.06202681
v -0.1046775 0.1099998 0.06043555
v -0.06043584 0.1099998 0.1046774
v -0.1208711 0.1100002 2.086163E-07
v -0.1046774 0.1100002 -0.06043506
v -0.06043564 0.1100002 -0.1046768
v -5.029142E-07 0.1100002 -0.1208705
v 0.06043503 0.1100002 -0.1046767
v 0.1046766 0.1100002 -0.06043512
v 0.1208702 0.1100002 2.384186E-07
v 0.1046767 0.1099998 0.0604357
v 0.06043491 0.1099998 0.1046773
v -4.563481E-07 0.1099998 0.120871
v -0.1393249 0.01999944 0.0804386
v -0.08043921 0.01999944 0.1393244
v -0.1608786 0.01999998 -8.642673E-07
v -0.1393248 0.01999998 -0.08044025
v -0.08043906 0.01999998 -0.139326
v 2.719462E-07 0.01999998 -0.1608798
v 0.08043994 0.01999998 -0.1393259
v 0.1393255 0.01999998 -0.08044031
v 0.1608792 0.01999998 -8.046627E-07
v 0.1393256 0.01999944 0.08043875
v 0.08043981 0.01999944 0.1393243
v 2.942979E-07 0.01999944 0.1608781
v -0.1228961 -0.07000053 0.0709531
v -0.07095373 -0.07000053 0.1228957
v -0.1419085 -0.06999999 -1.758337E-06
v -0.1228961 -0.06999999 -0.07095656
v -0.07095355 -0.06999999 -0.1228991
v 1.078472E-06 -0.06999999 -0.1419115
v 0.07095619 -0.06999999 -0.122899
v 0.1228985 -0.06999999 -0.07095662
v 0.1419108 -0.06999999 -1.728535E-06
v 0.1228986 -0.07000053 0.07095321
v 0.07095607 -0.07000053 0.1228956
v 1.18278E-06 -0.07000053 0.141908
v -0.0995451 -0.1200007 0.05747116
v -0.05747177 -0.1200007 0.09954463
v -0.1149451 -0.1200002 -2.324581E-06
v -0.09954513 -0.1200002 -0.05747572
v -0.05747167 -0.1200002 -0.09954917
v 1.611188E-06 -0.1200002 -0.1149492
v 0.05747525 -0.1200002 -0.09954906
v 0.09954857 -0.1200002 -0.05747572
v 0.1149485 -0.1200002 -2.294779E-06
v 0.09954865 -0.1200007 0.05747125
v 0.05747516 -0.1200007 0.09954457
v 1.655892E-06 -0.1200007 0.1149445
vn -0.6379961 -0.4311862 0.6379965
vn 0.203556 -0.6176176 0.7596798
vn 0.5561246 -0.6176175 0.5561242
vn 0.7596798 -0.6176178 0.2035552
vn 0.7596802 -0.6176172 -0.2035555
vn 0.5561243 -0.6176174 -0.5561245
vn 0.2035554 -0.6176179 -0.7596797
vn -0.2035549 -0.6176186 -0.7596793
vn -0.556124 -0.6176183 -0.5561239
vn -0.7596789 -0.6176192 -0.2035549
vn -0.7596788 -0.6176192 0.2035549
vn -0.5561236 -0.6176189 0.5561236
vn -0.2035557 -0.6176186 0.7596791
vn 0.1341652 -0.8551555 0.5007083
vn 0.3665436 -0.8551555 0.3665443
vn 0.5007091 -0.8551553 0.1341636
vn 0.5007088 -0.8551554 -0.1341638
vn 0.3665445 -0.8551551 -0.3665445
vn 0.1341647 -0.8551545 -0.5007102
vn -0.1341642 -0.855154 -0.5007112
vn -0.3665463 -0.8551539 -0.3665454
vn -0.5007108 -0.8551542 -0.1341639
vn -0.5007104 -0.8551543 0.1341643
vn -0.3665453 -0.8551546 0.3665448
vn -0.1341649 -0.8551549 0.5007092
vn 0 -1 -1.748456E-07
vn -0.8715196 -0.4311858 0.2335219
vn -0.87152 -0.4311844 -0.233523
vn -0.6379969 -0.431184 -0.6379971
vn -0.2335237 -0.4311841 -0.8715199
vn 0.2335235 -0.4311842 -0.8715199
vn 0.6379967 -0.4311845 -0.6379969
vn 0.8715197 -0.4311848 -0.233523
vn 0.8715196 -0.4311856 0.2335222
vn 0.6379961 -0.4311866 0.6379962
vn 0.2335231 -0.431187 0.8715186
vn -0.2335229 -0.4311865 0.871519
vn -0.7068108 0.02891004 0.7068116
vn -0.9655221 0.02891149 0.2587105
vn -0.9655219 0.0289136 -0.2587112
vn -0.7068111 0.02891671 -0.7068111
vn -0.2587121 0.02891822 -0.9655215
vn 0.2587117 0.02891974 -0.9655216
vn 0.706811 0.02891993 -0.7068111
vn 0.9655218 0.02891902 -0.2587111
vn 0.9655219 0.02891608 0.2587107
vn 0.7068107 0.02891374 0.7068116
vn 0.2587117 0.02891173 0.9655218
vn -0.2587114 0.02891022 0.9655219
vn -0.6867214 0.2383849 0.6867215
vn -0.9380784 0.2383864 0.2513579
vn -0.9380779 0.2383884 -0.2513579
vn -0.6867205 0.2383908 -0.6867203
vn -0.2513587 0.2383929 -0.9380765
vn 0.2513581 0.2383946 -0.9380763
vn 0.6867198 0.2383949 -0.6867196
vn 0.9380766 0.2383942 -0.2513575
vn 0.9380772 0.2383919 0.2513571
vn 0.6867197 0.2383892 0.6867217
vn 0.2513581 0.2383868 0.9380783
vn -0.2513581 0.2383848 0.9380788
vn -0.6066903 0.5136672 0.60669
vn -0.8287537 0.5136672 0.2220659
vn -0.8287534 0.5136682 -0.2220647
vn -0.6066896 0.5136698 -0.6066885
vn -0.2220649 0.5136717 -0.8287511
vn 0.2220644 0.5136736 -0.8287501
vn 0.606687 0.5136747 -0.6066869
vn 0.82875 0.5136745 -0.2220632
vn 0.82875 0.5136739 0.2220643
vn 0.6066872 0.5136722 0.606689
vn 0.222064 0.5136701 0.8287525
vn -0.2220643 0.5136682 0.8287535
vn -0.5077493 0.6959755 0.5077488
vn -0.6935965 0.6959761 0.1858527
vn -0.6935959 0.6959773 -0.1858499
vn -0.5077472 0.6959791 -0.507746
vn -0.1858488 0.6959813 -0.6935924
vn 0.1858485 0.6959824 -0.6935912
vn 0.5077441 0.6959828 -0.5077439
vn 0.6935912 0.6959829 -0.1858472
vn 0.6935915 0.6959816 0.1858509
vn 0.5077462 0.6959795 0.5077464
vn 0.1858485 0.6959777 0.6935959
vn -0.1858491 0.6959766 0.693597
vn -2.937267E-07 1 -3.758436E-08
vn 1.720181E-06 1 6.603963E-06
vn 0 1 4.220979E-08
vn 2.937277E-07 1 -4.770129E-08
vn 0 1 9.239516E-07
vn 0 1 5.706642E-07
vn -2.937272E-07 1 2.569813E-07
vn 0 1 1.663996E-07
vn -1.720159E-06 1 6.86558E-06
vn 2.937258E-07 1 -6.562968E-08
vn 0 1 -2.594106E-07
vn 0 1 6.186438E-08
vn 0.5764316 -0.5791848 -0.57643
vn 0.7874169 -0.5791864 -0.210992
vn 0.7874157 -0.5791894 0.2109887
vn 0.5764258 -0.5791928 0.5764278
vn 0.2109886 -0.5791968 0.7874102
vn -0.210987 -0.579199 0.787409
vn -0.5764235 -0.5791997 0.5764232
vn -0.7874099 -0.5791984 0.2109856
vn -0.7874113 -0.5791954 -0.2109885
vn -0.5764259 -0.5791915 -0.576429
vn -0.210989 -0.5791879 -0.7874166
vn 0.2109883 -0.5791857 -0.7874186
vn 0.6497459 -0.394541 -0.6497443
vn 0.8875665 -0.3945436 -0.2378257
vn 0.8875647 -0.3945487 0.2378239
vn 0.6497408 -0.3945551 0.6497409
vn 0.2378228 -0.3945604 0.8875598
vn -0.2378224 -0.3945633 0.8875586
vn -0.6497382 -0.3945639 0.6497381
vn -0.8875598 -0.3945615 0.2378207
vn -0.8875617 -0.3945566 -0.2378221
vn -0.6497408 -0.3945505 -0.6497436
vn -0.237824 -0.394545 -0.8875663
vn 0.2378236 -0.3945416 -0.8875679
vn 0.6928922 0.1995082 -0.6928902
vn 0.9465076 0.1995066 -0.253615
vn 0.946508 0.1995015 0.2536173
vn 0.6928932 0.199495 0.6928931
vn 0.2536185 0.1994883 0.9465106
vn -0.2536191 0.1994835 0.9465113
vn -0.6928951 0.1994821 0.6928949
vn -0.9465118 0.199484 0.2536169
vn -0.9465116 0.1994891 -0.2536138
vn -0.6928917 0.1994956 -0.6928943
vn -0.2536172 0.199502 -0.9465079
vn 0.2536162 0.1995067 -0.9465072
vn 0.6271279 0.4619779 -0.627126
vn 0.8566732 0.4619757 -0.2295417
vn 0.8566747 0.461971 0.229546
vn 0.6271314 0.4619653 0.6271317
vn 0.2295487 0.4619612 0.8566792
vn -0.2295493 0.4619571 0.8566812
vn -0.627135 0.461956 0.6271349
vn -0.8566815 0.4619578 0.2295471
vn -0.8566806 0.461962 -0.2295419
vn -0.6271296 0.4619676 -0.627132
vn -0.2295461 0.4619739 -0.8566731
vn 0.2295448 0.4619765 -0.856672
vn -9.232572E-06 1 8.647323E-06
usemtl mat18
f 4//1 3//1 2//1 1//1
f 8//2 7//2 6//2 5//2
f 7//3 10//3 9//3 6//3
f 10//4 12//4 11//4 9//4
f 12//5 14//5 13//5 11//5
f 14//6 16//6 15//6 13//6
f 16//7 18//7 17//7 15//7
f 18//8 20//8 19//8 17//8
f 20//9 22//9 21//9 19//9
f 22//10 24//10 23//10 21//10
f 24//11 25//11 2//11 23//11
f 25//12 26//12 1//12 2//12
f 26//13 8//13 5//13 1//13
f 28//14 27//14 7//14 8//14
f 27//15 29//15 10//15 7//15
f 29//16 30//16 12//16 10//16
f 30//17 31//17 14//17 12//17
f 31//18 32//18 16//18 14//18
f 32//19 33//19 18//19 16//19
f 33//20 34//20 20//20 18//20
f 34//21 35//21 22//21 20//21
f 35//22 36//22 24//22 22//22
f 36//23 37//23 25//23 24//23
f 37//24 38//24 26//24 25//24
f 38//25 28//25 8//25 26//25
f 38//26 37//26 36//26 35//26 34//26 33//26 32//26 31//26 30//26 29//26 27//26 28//26
f 3//27 39//27 23//27 2//27
f 39//28 40//28 21//28 23//28
f 40//29 41//29 19//29 21//29
f 41//30 42//30 17//30 19//30
f 42//31 43//31 15//31 17//31
f 43//32 44//32 13//32 15//32
f 44//33 45//33 11//33 13//33
f 45//34 46//34 9//34 11//34
f 46//35 47//35 6//35 9//35
f 47//36 48//36 5//36 6//36
f 48//37 4//37 1//37 5//37
f 50//38 49//38 3//38 4//38
f 49//39 51//39 39//39 3//39
f 51//40 52//40 40//40 39//40
f 52//41 53//41 41//41 40//41
f 53//42 54//42 42//42 41//42
f 54//43 55//43 43//43 42//43
f 55//44 56//44 44//44 43//44
f 56//45 57//45 45//45 44//45
f 57//46 58//46 46//46 45//46
f 58//47 59//47 47//47 46//47
f 59//48 60//48 48//48 47//48
f 60//49 50//49 4//49 48//49
f 62//50 61//50 49//50 50//50
f 61//51 63//51 51//51 49//51
f 63//52 64//52 52//52 51//52
f 64//53 65//53 53//53 52//53
f 65//54 66//54 54//54 53//54
f 66//55 67//55 55//55 54//55
f 67//56 68//56 56//56 55//56
f 68//57 69//57 57//57 56//57
f 69//58 70//58 58//58 57//58
f 70//59 71//59 59//59 58//59
f 71//60 72//60 60//60 59//60
f 72//61 62//61 50//61 60//61
f 86//74 85//74 73//74 74//74
f 85//75 87//75 75//75 73//75
f 87//76 88//76 76//76 75//76
f 88//77 89//77 77//77 76//77
f 89//78 90//78 78//78 77//78
f 90//79 91//79 79//79 78//79
f 91//80 92//80 80//80 79//80
f 92//81 93//81 81//81 80//81
f 93//82 94//82 82//82 81//82
f 94//83 95//83 83//83 82//83
f 95//84 96//84 84//84 83//84
f 96//85 86//85 74//85 84//85
f 98//86 97//86 85//86 86//86
f 97//87 99//87 87//87 85//87
f 99//88 100//88 88//88 87//88
f 100//89 101//89 89//89 88//89
f 101//90 102//90 90//90 89//90
f 102//91 103//91 91//91 90//91
f 103//92 104//92 92//92 91//92
f 104//93 105//93 93//93 92//93
f 105//94 106//94 94//94 93//94
f 106//95 107//95 95//95 94//95
f 107//96 108//96 96//96 95//96
f 108//97 98//97 86//97 96//97
f 110//98 109//98 97//98 98//98
f 109//99 111//99 99//99 97//99
f 111//100 112//100 100//100 99//100
f 112//101 113//101 101//101 100//101
f 113//102 114//102 102//102 101//102
f 114//103 115//103 103//103 102//103
f 115//104 116//104 104//104 103//104
f 116//105 117//105 105//105 104//105
f 117//106 118//106 106//106 105//106
f 118//107 119//107 107//107 106//107
f 119//108 120//108 108//108 107//108
f 120//109 110//109 98//109 108//109
f 122//110 121//110 109//110 110//110
f 121//111 123//111 111//111 109//111
f 123//112 124//112 112//112 111//112
f 124//113 125//113 113//113 112//113
f 125//114 126//114 114//114 113//114
f 126//115 127//115 115//115 114//115
f 127//116 128//116 116//116 115//116
f 128//117 129//117 117//117 116//117
f 129//118 130//118 118//118 117//118
f 130//119 131//119 119//119 118//119
f 131//120 132//120 120//120 119//120
f 132//121 122//121 110//121 120//121
f 134//122 133//122 121//122 122//122
f 133//123 135//123 123//123 121//123
f 135//124 136//124 124//124 123//124
f 136//125 137//125 125//125 124//125
f 137//126 138//126 126//126 125//126
f 138//127 139//127 127//127 126//127
f 139//128 140//128 128//128 127//128
f 140//129 141//129 129//129 128//129
f 141//130 142//130 130//130 129//130
f 142//131 143//131 131//131 130//131
f 143//132 144//132 132//132 131//132
f 144//133 134//133 122//133 132//133
f 146//134 145//134 133//134 134//134
f 145//135 147//135 135//135 133//135
f 147//136 148//136 136//136 135//136
f 148//137 149//137 137//137 136//137
f 149//138 150//138 138//138 137//138
f 150//139 151//139 139//139 138//139
f 151//140 152//140 140//140 139//140
f 152//141 153//141 141//141 140//141
f 153//142 154//142 142//142 141//142
f 154//143 155//143 143//143 142//143
f 155//144 156//144 144//144 143//144
f 156//145 146//145 134//145 144//145
f 156//146 155//146 154//146 153//146 152//146 151//146 150//146 149//146 148//146 147//146 145//146 146//146
usemtl mat21
f 74//62 73//62 61//62 62//62
f 73//63 75//63 63//63 61//63
f 75//64 76//64 64//64 63//64
f 76//65 77//65 65//65 64//65
f 77//66 78//66 66//66 65//66
f 78//67 79//67 67//67 66//67
f 79//68 80//68 68//68 67//68
f 80//69 81//69 69//69 68//69
f 81//70 82//70 70//70 69//70
f 82//71 83//71 71//71 70//71
f 83//72 84//72 72//72 71//72
f 84//73 74//73 62//73 72//73
