mtllib materials.mtl
v -0.06500003 -0.3233334 5.960464E-08
v -0.05629168 -0.3233334 0.03250003
v -0.05629167 -0.3333334 0.03250003
v -0.06500001 -0.3333334 5.960464E-08
v -0.03250001 -0.3233334 0.0562917
v -0.03250001 -0.3333334 0.0562917
v -1.490116E-08 -0.3233334 0.06500006
v -1.490116E-08 -0.3333334 0.06500006
v 0.03249998 -0.3233334 0.0562917
v 0.03249998 -0.3333334 0.0562917
v 0.05629165 -0.3233334 0.03250009
v 0.05629164 -0.3333334 0.03250009
v 0.06500001 -0.3233334 5.960464E-08
v 0.06499999 -0.3333334 5.960464E-08
v 0.05629165 -0.3233334 -0.03249997
v 0.05629164 -0.3333334 -0.03249997
v 0.03249998 -0.3233334 -0.05629158
v 0.03249998 -0.3333334 -0.05629158
v -1.490116E-08 -0.3233334 -0.06499994
v -1.490116E-08 -0.3333334 -0.06499994
v -0.03250001 -0.3233334 -0.05629158
v -0.0325 -0.3333334 -0.05629158
v -0.0562917 -0.3233334 -0.03249991
v -0.05629168 -0.3333334 -0.03249991
v -0.04758328 -0.1933335 -0.08241707
v -0.0824167 -0.1933335 -0.0475837
v -1.490116E-08 -0.1933335 -0.09516698
v 0.04758325 -0.1933335 -0.08241707
v 0.08241664 -0.1933335 -0.04758376
v 0.09516654 -0.1933335 -4.768372E-07
v 0.08241664 -0.1933335 0.04758281
v 0.04758325 -0.1933335 0.08241612
v -1.490116E-08 -0.1933335 0.09516603
v -0.04758328 -0.1933335 0.08241612
v -0.0824167 -0.1933335 0.04758275
v -0.09516658 -0.1933335 -4.768372E-07
v -0.05757579 -0.04333365 -0.09972423
v -0.09972425 -0.04333365 -0.05757588
v -1.490116E-08 -0.04333365 -0.1151517
v 0.05757575 -0.04333365 -0.09972423
v 0.09972417 -0.04333365 -0.05757594
v 0.1151516 -0.04333365 -1.788139E-07
v 0.09972417 -0.04333365 0.05757558
v 0.05757575 -0.04333365 0.09972388
v -1.490116E-08 -0.04333365 0.1151513
v -0.05757579 -0.04333365 0.09972388
v -0.09972425 -0.04333365 0.05757552
v -0.1151516 -0.04333365 -1.788139E-07
v -0.03059815 0.01666629 -0.05299759
v -0.05299759 0.01666629 -0.03059822
v -1.490116E-08 0.01666629 -0.06119633
v 0.03059809 0.01666629 -0.05299759
v 0.0529975 0.01666629 -0.03059822
v 0.06119625 0.01666629 -1.192093E-07
v 0.0529975 0.01666629 0.03059798
v 0.03059809 0.01666629 0.05299735
v -1.490116E-08 0.01666629 0.06119609
v -0.03059815 0.01666629 0.05299735
v -0.05299759 0.01666629 0.03059798
v -0.0611963 0.01666629 -1.192093E-07
v -0.02753834 0.03666627 -0.04769778
v -0.04769784 0.03666627 -0.02753836
v -1.490116E-08 0.03666627 -0.05507666
v 0.02753828 0.03666627 -0.04769778
v 0.04769775 0.03666627 -0.02753836
v 0.05507663 0.03666627 -5.960464E-08
v 0.04769775 0.03666627 0.02753824
v 0.02753828 0.03666627 0.04769766
v -1.490116E-08 0.03666627 0.05507654
v -0.02753834 0.03666627 0.04769766
v -0.04769784 0.03666627 0.02753824
v -0.05507669 0.03666627 -5.960464E-08
v -0.02753834 0.04666626 -0.04769778
v -0.04769784 0.04666626 -0.02753836
v -1.490116E-08 0.04666626 -0.05507666
v 0.02753828 0.04666626 -0.04769778
v 0.04769777 0.04666626 -0.02753836
v 0.05507664 0.04666626 -5.960464E-08
v 0.04769777 0.04666626 0.02753824
v 0.02753828 0.04666626 0.04769766
v -1.490116E-08 0.04666626 0.05507654
v -0.02753834 0.04666626 0.04769766
v -0.04769784 0.04666626 0.02753824
v -0.05507672 0.04666626 -5.960464E-08
v -0.02230607 0.04666626 -0.03863519
v -0.03863525 0.04666626 -0.02230608
v -1.490116E-08 0.04666626 -0.04461211
v 0.02230601 0.04666626 -0.03863519
v 0.03863519 0.04666626 -0.02230608
v 0.04461207 0.04666626 -5.960464E-08
v 0.03863519 0.04666626 0.02230597
v 0.02230601 0.04666626 0.03863508
v -1.490116E-08 0.04666626 0.04461199
v -0.02230607 0.04666626 0.03863508
v -0.03863525 0.04666626 0.02230597
v -0.04461212 0.04666626 -5.960464E-08
v -0.02230607 0.006666303 -0.03863585
v -0.03863525 0.006666303 -0.02230674
v -1.490116E-08 0.006666303 -0.04461277
v 0.02230601 0.006666303 -0.03863585
v 0.03863521 0.006666303 -0.02230674
v 0.04461207 0.006666303 -7.152557E-07
v 0.03863521 0.006666303 0.02230531
v 0.02230601 0.006666303 0.03863442
v -1.490116E-08 0.006666303 0.04461133
v -0.02230607 0.006666303 0.03863442
v -0.03863525 0.006666303 0.02230531
v -0.04461212 0.006666303 -7.152557E-07
v -0.04346821 -0.04333365 -0.07528955
v -0.07528915 -0.04333365 -0.04346871
v 0 -0.04333365 -0.08693689
v 0.04346815 -0.04333365 -0.07528955
v 0.07528915 -0.04333365 -0.04346871
v 0.08693635 -0.04333365 -5.960464E-07
v 0.07528915 -0.04333365 0.04346752
v 0.04346815 -0.04333365 0.07528836
v 0 -0.04333365 0.0869357
v -0.04346821 -0.04333365 0.07528836
v -0.07528915 -0.04333365 0.04346752
v -0.0869364 -0.04333365 -5.960464E-07
v -0.04346824 -0.1833335 -0.07528967
v -0.07528917 -0.1833335 -0.04346883
v 0 -0.1833335 -0.08693701
v 0.04346816 -0.1833335 -0.07528967
v 0.07528917 -0.1833335 -0.04346883
v 0.08693637 -0.1833335 -7.152557E-07
v 0.07528917 -0.1833335 0.0434674
v 0.04346816 -0.1833335 0.07528824
v 0 -0.1833335 0.08693558
v -0.04346824 -0.1833335 0.07528824
v -0.07528917 -0.1833335 0.0434674
v -0.0869364 -0.1833335 -7.152557E-07
v -0.0285195 -0.3033336 -0.04939765
v -0.04939723 -0.3033336 -0.02852005
v 0 -0.3033336 -0.0570395
v 0.02851947 -0.3033336 -0.04939765
v 0.04939723 -0.3033336 -0.02852005
v 0.05703896 -0.3033336 -5.960464E-07
v 0.04939723 -0.3033336 0.02851886
v 0.02851947 -0.3033336 0.04939646
v 0 -0.3033336 0.05703831
v -0.0285195 -0.3033336 0.04939646
v -0.04939723 -0.3033336 0.02851886
v -0.05703896 -0.3033336 -5.960464E-07
v -1.490116E-08 0.06666672 -0.06499988
v -0.03250001 0.06666672 -0.05629152
v -0.03250001 0.04666674 -0.05629152
v -1.490116E-08 0.04666674 -0.06499988
v -0.05629165 0.06666672 -0.03249985
v -0.05629165 0.04666674 -0.03249985
v -0.06500001 0.06666672 1.192093E-07
v -0.06500001 0.04666674 1.192093E-07
v -0.05629167 0.06666672 0.03250009
v -0.05629167 0.04666674 0.03250009
v -0.03250001 0.06666672 0.05629176
v -0.03250001 0.04666674 0.05629176
v -1.490116E-08 0.06666672 0.06500012
v -1.490116E-08 0.04666674 0.06500012
v 0.03249998 0.06666672 0.05629176
v 0.03249998 0.04666674 0.05629176
v 0.05629163 0.06666672 0.03250009
v 0.05629163 0.04666674 0.03250009
v 0.06499998 0.06666672 1.192093E-07
v 0.06499998 0.04666674 1.192093E-07
v 0.05629164 0.06666672 -0.03249985
v 0.05629164 0.04666674 -0.03249985
v 0.03249997 0.06666672 -0.05629152
v 0.03249997 0.04666674 -0.05629152
v 0.04103663 0.07666683 -0.02369237
v 0.0236925 0.07666683 -0.04103649
v 0.04738498 0.07666683 1.192093E-07
v 0.04103666 0.07666683 0.02369261
v 0.02369252 0.07666683 0.04103673
v 2.980232E-08 0.07666683 0.0473851
v -0.02369247 0.07666683 0.04103673
v -0.04103661 0.07666683 0.02369261
v -0.04738496 0.07666683 1.192093E-07
v -0.04103659 0.07666683 -0.02369237
v -0.02369249 0.07666683 -0.04103649
v 0 0.07666683 -0.04738486
v 0.03323971 0.07666683 -0.01919079
v 0.01919095 0.07666683 -0.03323954
v 0.03838186 0.07666683 1.192093E-07
v 0.03323974 0.07666683 0.01919103
v 0.01919094 0.07666683 0.03323978
v 4.470348E-08 0.07666683 0.03838193
v -0.01919091 0.07666683 0.03323978
v -0.0332396 0.07666683 0.01919103
v -0.0383818 0.07666683 1.192093E-07
v -0.03323962 0.07666683 -0.01919079
v -0.01919089 0.07666683 -0.03323954
v 0 0.07666683 -0.0383817
v 1.490116E-08 0.0866667 -0.01999986
v -0.009999976 0.0866667 -0.01732039
v -0.009999976 0.07666671 -0.01732039
v 1.490116E-08 0.07666671 -0.01999986
v -0.0173205 0.0866667 -0.009999871
v -0.0173205 0.07666671 -0.009999871
v -0.01999998 0.0866667 1.192093E-07
v -0.01999998 0.07666671 1.192093E-07
v -0.0173205 0.0866667 0.01000011
v -0.0173205 0.07666671 0.01000011
v -0.00999999 0.0866667 0.01732063
v -0.00999999 0.07666671 0.01732063
v 1.490116E-08 0.0866667 0.0200001
v 1.490116E-08 0.07666671 0.0200001
v 0.01000002 0.0866667 0.01732063
v 0.01000002 0.07666671 0.01732063
v 0.01732053 0.0866667 0.01000011
v 0.01732053 0.07666671 0.01000011
v 0.02000001 0.0866667 1.192093E-07
v 0.02000001 0.07666671 1.192093E-07
v 0.01732053 0.0866667 -0.009999871
v 0.01732053 0.07666671 -0.009999871
v 0.01000001 0.0866667 -0.01732039
v 0.01000001 0.07666671 -0.01732039
vn -0.9659259 -5.984162E-07 0.2588192
vn -0.707107 -1.661237E-08 0.7071067
vn -0.2588193 -1.385059E-06 0.9659259
vn 0.2588195 6.110752E-07 0.9659258
vn 0.7071061 -3.076601E-06 0.7071077
vn 0.965926 -1.40598E-06 0.2588187
vn 0.9659259 -2.589272E-06 -0.258819
vn 0.707106 -3.547663E-07 -0.7071077
vn 0.2588193 -7.458891E-07 -0.9659259
vn -0.2588194 1.094086E-06 -0.9659258
vn -0.7071069 -2.800301E-07 -0.7071068
vn -0.965926 -5.214745E-07 -0.2588188
vn -0.6899859 -0.2187194 -0.6899866
vn 0 -1 0
vn -0.2525527 -0.2187202 -0.9425384
vn 0.2525527 -0.2187202 -0.9425384
vn 0.6899856 -0.2187193 -0.6899869
vn 0.9425391 -0.2187176 -0.2525525
vn 0.9425395 -0.2187156 0.2525527
vn 0.6899865 -0.2187138 0.6899878
vn 0.2525531 -0.2187128 0.9425401
vn -0.2525532 -0.2187128 0.9425401
vn -0.689987 -0.2187139 0.6899872
vn -0.9425395 -0.2187158 0.2525527
vn -0.9425392 -0.2187178 -0.2525523
vn -0.7013226 -0.1276394 -0.7013238
vn -0.2567025 -0.1276388 -0.9580253
vn 0.2567025 -0.1276387 -0.9580252
vn 0.7013224 -0.1276394 -0.7013239
vn 0.9580251 -0.1276404 -0.2567021
vn 0.958025 -0.1276415 0.2567021
vn 0.7013221 -0.1276421 0.7013237
vn 0.2567024 -0.1276425 0.9580247
vn -0.2567024 -0.1276425 0.9580248
vn -0.7013224 -0.1276422 0.7013234
vn -0.958025 -0.1276415 0.256702
vn -0.9580252 -0.1276405 -0.2567018
vn -0.5338375 0.6557698 -0.5338386
vn -0.1953985 0.6557699 -0.7292361
vn 0.1953983 0.6557699 -0.7292362
vn 0.5338374 0.6557699 -0.5338384
vn 0.7292361 0.6557699 -0.1953985
vn 0.7292363 0.6557697 0.1953985
vn 0.5338377 0.6557695 0.5338388
vn 0.1953987 0.6557691 0.7292368
vn -0.1953985 0.6557691 0.7292368
vn -0.5338379 0.6557692 0.533839
vn -0.7292365 0.6557696 0.195398
vn -0.7292363 0.6557699 -0.195398
vn -0.6781082 0.2834367 -0.6781099
vn -0.2482051 0.2834371 -0.9263141
vn 0.2482053 0.2834373 -0.9263139
vn 0.6781086 0.2834369 -0.6781096
vn 0.9263145 0.2834357 -0.2482056
vn 0.9263147 0.2834345 0.2482058
vn 0.6781091 0.2834333 0.6781105
vn 0.2482058 0.2834322 0.9263155
vn -0.2482054 0.2834323 0.9263155
vn -0.6781092 0.2834328 0.6781105
vn -0.9263152 0.2834339 0.2482045
vn -0.9263148 0.2834355 -0.2482045
vn -0.7071062 -1.958872E-08 -0.7071076
vn -0.2588194 -1.911489E-07 -0.9659258
vn 0.2588199 -2.518385E-07 -0.9659257
vn 0.7071056 -1.035516E-06 -0.707108
vn 0.9659259 -1.432495E-06 -0.258819
vn 0.9659258 -1.418082E-06 0.2588195
vn 0.7071064 -9.887336E-07 0.7071073
vn 0.2588197 -3.304449E-07 0.9659258
vn -0.2588196 -1.524596E-07 0.9659258
vn -0.7071055 1.669793E-08 0.7071083
vn -0.965926 -1.42765E-06 0.2588187
vn -0.9659259 -1.438251E-06 -0.258819
vn -2.601739E-07 1 -3.101514E-14
vn -5.11452E-07 1 -6.096982E-14
vn -4.846411E-07 1 -5.777371E-14
vn -5.114527E-07 1 -6.096991E-14
vn 2.882329E-06 1 3.436004E-13
vn 3.686952E-07 1 4.395189E-14
vn 2.601741E-07 1 3.101517E-14
vn 5.114525E-07 1 6.096988E-14
vn 4.846408E-07 1 5.777368E-14
vn 5.114523E-07 1 6.096986E-14
vn -2.882325E-06 1 -3.435999E-13
vn -3.686775E-07 1 -4.394977E-14
vn 0.7071056 -1.156774E-05 0.7071081
vn 0.2588199 -1.582752E-05 0.9659256
vn -0.2588204 -1.584949E-05 0.9659256
vn -0.7071056 -1.172873E-05 0.7071082
vn -0.965926 -4.423954E-06 0.2588189
vn -0.965926 4.056358E-06 -0.2588189
vn -0.7071056 1.147408E-05 -0.7071081
vn -0.2588204 1.581764E-05 -0.9659256
vn 0.25882 1.581947E-05 -0.9659256
vn 0.7071055 1.16213E-05 -0.7071083
vn 0.9659258 4.239547E-06 -0.2588192
vn 0.9659258 -4.244793E-06 0.2588192
vn 0.5474149 -0.6329866 0.5474166
vn 0.2003691 -0.6329863 0.7477838
vn -0.2003694 -0.6329864 0.7477837
vn -0.5474142 -0.6329868 0.547417
vn -0.7477831 -0.6329878 0.2003672
vn -0.7477826 -0.6329884 -0.2003672
vn -0.5474133 -0.6329885 -0.5474162
vn -0.2003689 -0.6329885 -0.7477821
vn 0.2003687 -0.6329885 -0.7477822
vn 0.547414 -0.6329882 -0.5474158
vn 0.7477826 -0.6329882 -0.2003682
vn 0.747783 -0.6329876 0.2003683
vn 0.7071059 -7.560332E-07 0.7071078
vn 0.2588204 -8.53461E-07 0.9659255
vn -0.2588209 -8.20505E-07 0.9659255
vn -0.707105 -6.642378E-07 0.7071088
vn -0.9659262 -3.217756E-07 0.2588182
vn -0.9659262 1.165441E-07 -0.2588182
vn -0.707105 5.195794E-07 -0.7071087
vn -0.2588208 8.26616E-07 -0.9659255
vn 0.2588205 8.191671E-07 -0.9659255
vn 0.7071058 4.438191E-07 -0.7071079
vn 0.9659258 1.19635E-07 -0.2588194
vn 0.9659258 -3.249627E-07 0.2588195
vn 0.6874779 0.2339763 0.6874806
vn 0.2516365 0.2339764 0.9391135
vn -0.251637 0.2339764 0.9391134
vn -0.6874771 0.2339762 0.6874813
vn -0.9391143 0.2339759 0.2516339
vn -0.9391145 0.2339755 -0.251634
vn -0.6874774 0.2339749 -0.6874816
vn -0.251637 0.2339746 -0.9391139
vn 0.2516367 0.2339747 -0.939114
vn 0.687478 0.233975 -0.6874808
vn 0.9391143 0.2339756 -0.2516346
vn 0.9391142 0.2339761 0.2516346
vn 0 1 0
vn -0.2588193 4.819535E-07 -0.9659258
vn -0.7071072 1.292635E-06 -0.7071064
vn -0.9659257 4.958513E-07 -0.2588195
vn -0.9659258 3.181084E-07 0.2588192
vn -0.7071071 5.266012E-07 0.7071065
vn -0.2588193 -9.154026E-09 0.9659258
vn 0.2588194 1.646766E-07 0.9659258
vn 0.7071072 1.009611E-06 0.7071064
vn 0.9659258 -2.087106E-07 0.2588193
vn 0.9659258 -1.323771E-07 -0.2588192
vn 0.7071069 6.506971E-07 -0.7071066
vn 0.2588193 8.779446E-08 -0.9659258
vn 0.3582892 0.8621239 -0.3582893
vn 0 -1 0
vn 0.489432 0.8621241 -0.1311427
vn 0.4894324 0.8621239 0.1311426
vn 0.3582894 0.8621238 0.3582894
vn 0.1311428 0.8621243 0.4894315
vn -0.1311426 0.8621246 0.4894314
vn -0.3582886 0.8621245 0.3582886
vn -0.4894309 0.8621247 0.1311424
vn -0.4894309 0.8621247 -0.1311427
vn -0.3582888 0.8621244 -0.3582884
vn -0.1311428 0.8621244 -0.4894313
vn 0.1311428 0.8621243 -0.4894315
vn -1.596038E-15 1 1.825655E-08
vn 2.657924E-15 1 -3.040311E-08
vn 7.877245E-15 1 -9.010517E-08
vn 1.636579E-14 1 -1.872029E-07
vn -2.347721E-14 1 2.685479E-07
vn -8.883694E-15 1 1.016176E-07
vn -3.938597E-15 1 4.50523E-08
vn 2.619295E-15 1 -2.996124E-08
vn 7.413834E-15 1 -8.480438E-08
vn 1.036134E-15 1 -1.1852E-08
vn -1.82772E-15 1 2.090668E-08
vn 9.939124E-15 1 -1.136903E-07
vn 0 1 0
vn -0.2588171 -5.040143E-07 -0.9659263
vn -0.7071068 5.80619E-08 -0.7071068
vn -0.965926 4.078742E-07 -0.2588185
vn -0.9659259 -1.156515E-07 0.2588183
vn -0.7071075 -3.590655E-07 0.7071061
vn -0.2588167 2.149084E-06 0.9659265
vn 0.2588165 -6.496338E-07 0.9659265
vn 0.7071075 5.509876E-07 0.707106
vn 0.9659261 3.318902E-07 0.2588185
vn 0.965926 -5.060954E-07 -0.2588183
vn 0.7071067 1.230223E-07 -0.7071068
vn 0.2588172 1.501817E-06 -0.9659263
vn 1.528548E-14 1 -1.748456E-07
vn -1.528548E-14 -1 1.748456E-07
usemtl mat18
f 4//1 3//1 2//1 1//1
f 3//2 6//2 5//2 2//2
f 6//3 8//3 7//3 5//3
f 8//4 10//4 9//4 7//4
f 10//5 12//5 11//5 9//5
f 12//6 14//6 13//6 11//6
f 14//7 16//7 15//7 13//7
f 16//8 18//8 17//8 15//8
f 18//9 20//9 19//9 17//9
f 20//10 22//10 21//10 19//10
f 22//11 24//11 23//11 21//11
f 24//12 4//12 1//12 23//12
f 24//14 22//14 20//14 18//14 16//14 14//14 12//14 10//14 8//14 6//14 3//14 4//14
f 38//26 37//26 25//26 26//26
f 37//27 39//27 27//27 25//27
f 39//28 40//28 28//28 27//28
f 40//29 41//29 29//29 28//29
f 41//30 42//30 30//30 29//30
f 42//31 43//31 31//31 30//31
f 43//32 44//32 32//32 31//32
f 44//33 45//33 33//33 32//33
f 45//34 46//34 34//34 33//34
f 46//35 47//35 35//35 34//35
f 47//36 48//36 36//36 35//36
f 48//37 38//37 26//37 36//37
f 62//50 61//50 49//50 50//50
f 61//51 63//51 51//51 49//51
f 63//52 64//52 52//52 51//52
f 64//53 65//53 53//53 52//53
f 65//54 66//54 54//54 53//54
f 66//55 67//55 55//55 54//55
f 67//56 68//56 56//56 55//56
f 68//57 69//57 57//57 56//57
f 69//58 70//58 58//58 57//58
f 70//59 71//59 59//59 58//59
f 71//60 72//60 60//60 59//60
f 72//61 62//61 50//61 60//61
f 98//86 97//86 85//86 86//86
f 97//87 99//87 87//87 85//87
f 99//88 100//88 88//88 87//88
f 100//89 101//89 89//89 88//89
f 101//90 102//90 90//90 89//90
f 102//91 103//91 91//91 90//91
f 103//92 104//92 92//92 91//92
f 104//93 105//93 93//93 92//93
f 105//94 106//94 94//94 93//94
f 106//95 107//95 95//95 94//95
f 107//96 108//96 96//96 95//96
f 108//97 98//97 86//97 96//97
f 110//98 109//98 97//98 98//98
f 109//99 111//99 99//99 97//99
f 111//100 112//100 100//100 99//100
f 112//101 113//101 101//101 100//101
f 113//102 114//102 102//102 101//102
f 114//103 115//103 103//103 102//103
f 115//104 116//104 104//104 103//104
f 116//105 117//105 105//105 104//105
f 117//106 118//106 106//106 105//106
f 118//107 119//107 107//107 106//107
f 119//108 120//108 108//108 107//108
f 120//109 110//109 98//109 108//109
f 122//110 121//110 109//110 110//110
f 121//111 123//111 111//111 109//111
f 123//112 124//112 112//112 111//112
f 124//113 125//113 113//113 112//113
f 125//114 126//114 114//114 113//114
f 126//115 127//115 115//115 114//115
f 127//116 128//116 116//116 115//116
f 128//117 129//117 117//117 116//117
f 129//118 130//118 118//118 117//118
f 130//119 131//119 119//119 118//119
f 131//120 132//120 120//120 119//120
f 132//121 122//121 110//121 120//121
f 134//122 133//122 121//122 122//122
f 133//123 135//123 123//123 121//123
f 135//124 136//124 124//124 123//124
f 136//125 137//125 125//125 124//125
f 137//126 138//126 126//126 125//126
f 138//127 139//127 127//127 126//127
f 139//128 140//128 128//128 127//128
f 140//129 141//129 129//129 128//129
f 141//130 142//130 130//130 129//130
f 142//131 143//131 131//131 130//131
f 143//132 144//132 132//132 131//132
f 144//133 134//133 122//133 132//133
f 144//134 143//134 142//134 141//134 140//134 139//134 138//134 137//134 136//134 135//134 133//134 134//134
f 148//135 147//135 146//135 145//135
f 147//136 150//136 149//136 146//136
f 150//137 152//137 151//137 149//137
f 152//138 154//138 153//138 151//138
f 154//139 156//139 155//139 153//139
f 156//140 158//140 157//140 155//140
f 158//141 160//141 159//141 157//141
f 160//142 162//142 161//142 159//142
f 162//143 164//143 163//143 161//143
f 164//144 166//144 165//144 163//144
f 166//145 168//145 167//145 165//145
f 168//146 148//146 145//146 167//146
f 170//147 169//147 165//147 167//147
f 168//148 166//148 164//148 162//148 160//148 158//148 156//148 154//148 152//148 150//148 147//148 148//148
f 169//149 171//149 163//149 165//149
f 171//150 172//150 161//150 163//150
f 172//151 173//151 159//151 161//151
f 173//152 174//152 157//152 159//152
f 174//153 175//153 155//153 157//153
f 175//154 176//154 153//154 155//154
f 176//155 177//155 151//155 153//155
f 177//156 178//156 149//156 151//156
f 178//157 179//157 146//157 149//157
f 179//158 180//158 145//158 146//158
f 180//159 170//159 167//159 145//159
f 192//172 191//172 190//172 189//172 188//172 187//172 186//172 185//172 184//172 183//172 181//172 182//172
f 196//173 195//173 194//173 193//173
f 195//174 198//174 197//174 194//174
f 198//175 200//175 199//175 197//175
f 200//176 202//176 201//176 199//176
f 202//177 204//177 203//177 201//177
f 204//178 206//178 205//178 203//178
f 206//179 208//179 207//179 205//179
f 208//180 210//180 209//180 207//180
f 210//181 212//181 211//181 209//181
f 212//182 214//182 213//182 211//182
f 214//183 216//183 215//183 213//183
f 216//184 196//184 193//184 215//184
f 193//185 194//185 197//185 199//185 201//185 203//185 205//185 207//185 209//185 211//185 213//185 215//185
f 216//186 214//186 212//186 210//186 208//186 206//186 204//186 202//186 200//186 198//186 195//186 196//186
usemtl mat21
f 26//13 25//13 21//13 23//13
f 25//15 27//15 19//15 21//15
f 27//16 28//16 17//16 19//16
f 28//17 29//17 15//17 17//17
f 29//18 30//18 13//18 15//18
f 30//19 31//19 11//19 13//19
f 31//20 32//20 9//20 11//20
f 32//21 33//21 7//21 9//21
f 33//22 34//22 5//22 7//22
f 34//23 35//23 2//23 5//23
f 35//24 36//24 1//24 2//24
f 36//25 26//25 23//25 1//25
f 50//38 49//38 37//38 38//38
f 49//39 51//39 39//39 37//39
f 51//40 52//40 40//40 39//40
f 52//41 53//41 41//41 40//41
f 53//42 54//42 42//42 41//42
f 54//43 55//43 43//43 42//43
f 55//44 56//44 44//44 43//44
f 56//45 57//45 45//45 44//45
f 57//46 58//46 46//46 45//46
f 58//47 59//47 47//47 46//47
f 59//48 60//48 48//48 47//48
f 60//49 50//49 38//49 48//49
f 74//62 73//62 61//62 62//62
f 73//63 75//63 63//63 61//63
f 75//64 76//64 64//64 63//64
f 76//65 77//65 65//65 64//65
f 77//66 78//66 66//66 65//66
f 78//67 79//67 67//67 66//67
f 79//68 80//68 68//68 67//68
f 80//69 81//69 69//69 68//69
f 81//70 82//70 70//70 69//70
f 82//71 83//71 71//71 70//71
f 83//72 84//72 72//72 71//72
f 84//73 74//73 62//73 72//73
f 86//74 85//74 73//74 74//74
f 85//75 87//75 75//75 73//75
f 87//76 88//76 76//76 75//76
f 88//77 89//77 77//77 76//77
f 89//78 90//78 78//78 77//78
f 90//79 91//79 79//79 78//79
f 91//80 92//80 80//80 79//80
f 92//81 93//81 81//81 80//81
f 93//82 94//82 82//82 81//82
f 94//83 95//83 83//83 82//83
f 95//84 96//84 84//84 83//84
f 96//85 86//85 74//85 84//85
usemtl mat19
f 182//160 181//160 169//160 170//160
f 181//161 183//161 171//161 169//161
f 183//162 184//162 172//162 171//162
f 184//163 185//163 173//163 172//163
f 185//164 186//164 174//164 173//164
f 186//165 187//165 175//165 174//165
f 187//166 188//166 176//166 175//166
f 188//167 189//167 177//167 176//167
f 189//168 190//168 178//168 177//168
f 190//169 191//169 179//169 178//169
f 191//170 192//170 180//170 179//170
f 192//171 182//171 170//171 180//171
